PathFileType	4	(X/Y/Z)	C:/Users/dbak576/Desktop/Duncan Bakke Modelling Files/H27s1/Static_H27s1.trc	
DataRate	CameraRate	NumFrames	NumMarkers	Units	OrigDataRate	OrigDataStartFrame	OrigNumFrames	
200.00	200.00	5	61	mm	200.00	1484	70	
Frame#	Time	LFHD			RFHD			LBHD			RBHD			C7			T10			CLAV			STRN			RBack			LASI			RASI			LPSI			RPSI			RACR1			RUA1			RElbow			RElbowM			RFA1			RWRR			RWRU			RCAR			LACR1			LUA1			LElbow			LElbowM			LFA1			LWRR			LWRU			LCAR			RTH1			RTH3			RTH2			RTH4			RLFC			RMFC			RTB1			RTB3			RTB2			RTB4			RLMAL			RMMAL			RCAL			RMT1			RMT5			RToe			LTH1			LTH3			LTH2			LTH4			LLFC			LMFC			LTB1			LTB3			LTB2			LTB4			LLMAL			LMMAL			LCAL			LMT1			LMT5			LToe			
		X1	Y1	Z1	X2	Y2	Z2	X3	Y3	Z3	X4	Y4	Z4	X5	Y5	Z5	X6	Y6	Z6	X7	Y7	Z7	X8	Y8	Z8	X9	Y9	Z9	X10	Y10	Z10	X11	Y11	Z11	X12	Y12	Z12	X13	Y13	Z13	X14	Y14	Z14	X15	Y15	Z15	X16	Y16	Z16	X17	Y17	Z17	X18	Y18	Z18	X19	Y19	Z19	X20	Y20	Z20	X21	Y21	Z21	X22	Y22	Z22	X23	Y23	Z23	X24	Y24	Z24	X25	Y25	Z25	X26	Y26	Z26	X27	Y27	Z27	X28	Y28	Z28	X29	Y29	Z29	X30	Y30	Z30	X31	Y31	Z31	X32	Y32	Z32	X33	Y33	Z33	X34	Y34	Z34	X35	Y35	Z35	X36	Y36	Z36	X37	Y37	Z37	X38	Y38	Z38	X39	Y39	Z39	X40	Y40	Z40	X41	Y41	Z41	X42	Y42	Z42	X43	Y43	Z43	X44	Y44	Z44	X45	Y45	Z45	X46	Y46	Z46	X47	Y47	Z47	X48	Y48	Z48	X49	Y49	Z49	X50	Y50	Z50	X51	Y51	Z51	X52	Y52	Z52	X53	Y53	Z53	X54	Y54	Z54	X55	Y55	Z55	X56	Y56	Z56	X57	Y57	Z57	X58	Y58	Z58	X59	Y59	Z59	X60	Y60	Z60	X61	Y61	Z61	

18	0.085	-51.09959	-364.44846	1605.41309	43.33174	-363.01617	1600.50183	-81.23238	-518.78168	1560.33411	60.82963	-518.23218	1561.44482	-13.57832	-558.18048	1420.41394	-22.74113	-577.48627	1141.82788	-14.83204	-411.30298	1365.81921	-11.14888	-343.80807	1279.18701	89.39124	-594.10577	1314.29846	-147.19704	-307.83411	968.94165	139.90338	-331.43884	986.41388	-67.32783	-556.46558	976.70795	20.99374	-563.31055	979.64368	107.63825	-505.45520	1417.68896	279.49869	-521.32098	1391.69495	398.22198	-537.58789	1335.06873	397.26126	-457.86148	1283.94116	534.13226	-533.62018	1308.38928	648.81647	-505.90820	1377.96899	654.41382	-490.74097	1310.12720	705.58075	-540.18561	1343.73242	-139.66078	-507.45334	1417.18066	-308.54373	-512.22968	1398.10059	-433.95297	-508.55420	1359.85718	-432.38599	-453.51108	1311.51831	-562.58563	-498.98691	1347.81726	-676.68323	-470.98578	1421.86450	-684.42487	-454.04880	1352.77380	-734.18665	-492.13782	1394.68286	221.17728	-411.97995	756.04675	195.92532	-444.46652	588.66443	185.96341	-374.75317	665.79486	206.30441	-429.96848	671.49530	181.07576	-464.04468	504.45392	33.24762	-459.31519	482.27164	135.98445	-426.80786	344.30038	159.31093	-442.13681	174.78583	202.60173	-460.39526	269.07126	147.94432	-437.12961	255.55318	197.55852	-489.11850	66.03461	116.42181	-464.65015	61.83879	160.74541	-541.98511	25.24059	153.07510	-365.09381	33.25497	231.36914	-403.68973	28.38862	189.80891	-298.04697	27.34874	-245.07803	-409.98520	765.46204	-198.51828	-446.00912	605.15454	-199.72063	-372.56979	681.20721	-216.90778	-428.49164	687.51593	-177.22923	-469.06073	485.17081	-28.40017	-481.14291	473.84113	-118.73006	-433.15189	339.90045	-139.05595	-450.73520	169.37410	-184.34087	-465.62149	261.38275	-127.38175	-442.92984	254.04199	-172.38197	-496.21472	62.24794	-89.77494	-473.37918	56.87768	-132.72502	-553.88214	28.70977	-123.53993	-372.46063	27.56472	-199.08542	-410.91476	25.05825	-160.43013	-305.67383	22.67860 
19	0.090	-51.03782	-364.44312	1605.35120	43.52677	-362.59329	1600.75964	-81.23885	-518.79639	1560.31946	60.38253	-518.84253	1561.38123	-13.53649	-558.19299	1420.42236	-22.72212	-577.49640	1141.85620	-14.76597	-411.31342	1365.73889	-11.16026	-343.83813	1279.17810	89.27972	-594.20435	1314.26843	-147.19447	-307.84500	968.94482	139.90572	-331.42859	986.39374	-67.30649	-556.43750	976.68732	20.69831	-563.50348	979.75574	107.64779	-505.52554	1417.68250	279.58896	-521.37048	1391.73108	398.24792	-537.60712	1335.07080	397.25909	-457.90408	1283.90979	534.17798	-533.64221	1308.39575	648.86426	-505.91867	1377.97205	654.31879	-491.09427	1310.07947	705.57898	-540.16882	1343.75195	-139.68466	-507.50098	1417.20337	-308.45297	-512.26459	1398.04028	-433.93243	-508.55368	1359.80627	-432.32620	-453.44611	1311.43359	-562.50452	-498.93094	1347.73181	-676.65796	-470.93234	1421.79492	-684.14825	-454.42661	1353.56018	-734.46582	-491.87448	1394.32239	221.18369	-411.97980	756.04865	195.94386	-444.48477	588.67993	185.95757	-374.75549	665.80072	206.32291	-429.95267	671.49689	181.05907	-464.03192	504.45303	33.34864	-459.83774	482.21530	135.96318	-426.84720	344.29565	159.31023	-442.14178	174.79367	202.58374	-460.38165	269.07187	147.99507	-437.17191	255.53722	197.49037	-489.16492	66.04488	116.41882	-464.65213	61.83400	160.79716	-541.79974	25.23644	153.13960	-364.98489	33.43676	231.46629	-403.65460	28.48195	189.80484	-298.03531	27.37549	-245.09193	-409.96725	765.46777	-198.52602	-446.01096	605.17883	-199.70258	-372.57816	681.20398	-216.90277	-428.47717	687.52887	-177.21849	-469.04483	485.18170	-28.53543	-481.11911	473.75455	-118.74161	-433.16318	339.90463	-139.04930	-450.73169	169.36797	-184.31314	-465.61853	261.37943	-127.37862	-442.90622	254.04852	-172.38544	-496.19299	62.26631	-90.02134	-473.20294	57.03909	-132.67282	-553.84375	28.68473	-123.52988	-372.45056	27.56030	-199.10980	-410.93628	25.06096	-160.48044	-305.60577	22.60552 
20	0.095	-50.95770	-364.44397	1605.31165	43.76248	-362.10690	1600.97668	-81.23871	-518.80725	1560.29346	60.00163	-519.45349	1561.42664	-13.49419	-558.20795	1420.42346	-22.70715	-577.50970	1141.90552	-14.67872	-411.32364	1365.68604	-11.16865	-343.87259	1279.16309	89.16859	-594.30011	1314.23584	-147.20027	-307.84238	968.94623	139.90947	-331.43008	986.38135	-67.29085	-556.43640	976.66083	20.41705	-563.59308	979.81610	107.65675	-505.59464	1417.67749	279.65646	-521.47290	1391.82019	398.27814	-537.62701	1335.07471	397.23953	-457.95453	1283.90601	534.21484	-533.65564	1308.40674	648.90668	-505.90845	1377.96863	654.20715	-491.31641	1310.01843	705.58533	-540.15259	1343.77649	-139.73055	-507.53635	1417.21130	-308.39078	-512.37280	1398.03271	-433.90295	-508.53476	1359.75220	-432.27539	-453.41266	1311.36218	-562.36084	-498.96555	1347.83704	-676.68652	-470.89331	1421.73865	-683.72748	-454.30997	1354.94446	-734.63428	-491.52753	1393.95947	221.18907	-411.97806	756.04755	195.96068	-444.50241	588.69421	185.95280	-374.75851	665.80994	206.33803	-429.93787	671.50403	181.05492	-464.02017	504.45157	33.41470	-460.35944	482.19824	135.94725	-426.87134	344.29172	159.31508	-442.14932	174.79515	202.56442	-460.37238	269.07416	148.06593	-437.21527	255.49281	197.37610	-489.19553	65.91948	116.41439	-464.65457	61.82647	161.01633	-541.84949	25.15296	153.14919	-364.94028	33.52371	231.52966	-403.63327	28.54697	189.79799	-298.03061	27.38450	-245.08978	-409.95251	765.48767	-198.53619	-446.00952	605.18933	-199.68091	-372.58704	681.20142	-216.89355	-428.46976	687.53436	-177.21715	-469.04175	485.20514	-28.56455	-481.11737	473.76694	-118.75138	-433.16968	339.90408	-139.03835	-450.72934	169.35645	-184.31511	-465.60123	261.36703	-127.37862	-442.88708	254.05896	-172.39096	-496.16946	62.24744	-90.29166	-472.98529	57.19726	-132.65533	-553.78699	28.67545	-123.51575	-372.44382	27.55781	-199.10649	-410.96188	25.08591	-160.52333	-305.59378	22.58681 
21	0.100	-50.90123	-364.49356	1605.34082	43.93664	-361.78256	1601.12549	-81.23256	-518.81689	1560.26392	59.94154	-519.77209	1561.45032	-13.45223	-558.23950	1420.40686	-22.70490	-577.52661	1141.94495	-14.59566	-411.34500	1365.66675	-11.16553	-343.91904	1279.13635	89.07176	-594.39282	1314.19971	-147.21399	-307.83508	968.94861	139.91837	-331.43845	986.37280	-67.27995	-556.45258	976.63800	20.21380	-563.58740	979.82477	107.66691	-505.65952	1417.66992	279.74121	-521.50470	1391.81677	398.30725	-537.64233	1335.07996	397.20743	-458.02536	1283.93713	534.24341	-533.66034	1308.42590	648.94019	-505.92206	1377.96924	654.12457	-491.41272	1309.97119	705.59338	-540.12775	1343.80139	-139.76570	-507.56784	1417.20618	-308.36392	-512.48688	1398.02771	-433.86807	-508.49490	1359.69592	-432.22580	-453.41049	1311.32129	-562.25360	-499.00143	1347.93127	-676.72327	-470.84460	1421.67749	-683.41040	-453.80984	1356.46069	-734.61438	-491.18997	1393.65881	221.20207	-411.97348	756.04761	195.97269	-444.51767	588.70447	185.94850	-374.76169	665.81976	206.35362	-429.92480	671.51593	181.05852	-464.02777	504.44464	33.42279	-460.85800	482.24628	135.93636	-426.87906	344.28973	159.32358	-442.15970	174.79387	202.54494	-460.36218	269.08090	148.12952	-437.26422	255.44666	197.22133	-489.20758	65.70235	116.40833	-464.65726	61.81754	161.13982	-541.88257	25.05972	153.17023	-364.87134	33.63135	231.57524	-403.62741	28.57677	189.79167	-298.03967	27.40591	-245.09312	-409.93744	765.51221	-198.54016	-446.01212	605.19073	-199.66310	-372.59631	681.19287	-216.87321	-428.47870	687.53516	-177.21440	-469.04919	485.23685	-28.42193	-481.13629	473.89975	-118.75942	-433.17056	339.90533	-139.02934	-450.72855	169.35036	-184.34665	-465.57626	261.35635	-127.37652	-442.87302	254.06599	-172.38277	-496.15359	62.21832	-90.32389	-472.89737	57.19481	-132.72122	-553.69995	28.67226	-123.49660	-372.44122	27.55488	-199.10625	-410.97913	25.09272	-160.52411	-305.61801	22.61766 
22	0.105	-50.84843	-364.53207	1605.35632	44.07166	-361.58673	1601.16882	-81.23717	-518.83167	1560.24585	59.91913	-520.07544	1561.55322	-13.42029	-558.27191	1420.40698	-22.71101	-577.55042	1141.95422	-14.51764	-411.36588	1365.68018	-11.15016	-343.97549	1279.10803	88.96714	-594.44434	1314.15283	-147.22600	-307.82013	968.95020	139.93048	-331.45044	986.36932	-67.26340	-556.47845	976.62494	20.12648	-563.57532	979.80609	107.66662	-505.71109	1417.64868	279.79358	-521.55762	1391.84534	398.32278	-537.65338	1335.10242	397.16238	-458.11450	1284.00305	534.27258	-533.66309	1308.44543	648.95477	-505.89615	1377.96204	654.04504	-491.39673	1309.93982	705.60651	-540.09088	1343.82251	-139.78842	-507.60254	1417.19238	-308.39636	-512.62665	1398.03174	-433.84775	-508.44620	1359.63086	-432.18820	-453.44489	1311.29602	-562.38000	-498.82419	1347.59863	-676.75494	-470.80722	1421.60327	-683.00128	-452.88287	1357.99854	-734.41260	-490.92499	1393.50916	221.21834	-411.96918	756.05170	195.97684	-444.53027	588.70953	185.94649	-374.76572	665.82599	206.36865	-429.91495	671.52814	181.07487	-464.03391	504.42114	33.36771	-461.32220	482.36035	135.92308	-426.90256	344.28400	159.33406	-442.17038	174.78952	202.53053	-460.35309	269.08810	148.18066	-437.30225	255.40593	197.15884	-489.19418	65.63306	116.39388	-464.67307	61.80253	161.16693	-541.88000	25.01224	153.18300	-364.78464	33.65414	231.53172	-403.62723	28.56967	189.78625	-298.05771	27.43796	-245.10208	-409.92386	765.53473	-198.54611	-446.01990	605.19220	-199.64073	-372.61102	681.18799	-216.84068	-428.48996	687.47668	-177.21263	-469.06625	485.26184	-28.29554	-481.20819	474.02029	-118.76469	-433.16714	339.90372	-139.02652	-450.72983	169.35185	-184.36836	-465.55682	261.34976	-127.39386	-442.85770	254.04904	-172.36984	-496.14304	62.19843	-90.16379	-472.94284	57.04121	-132.73228	-553.65741	28.69389	-123.47795	-372.43707	27.55942	-199.08891	-410.98401	25.09727	-160.50410	-305.60822	22.62929 
